<?xml version="1.0" encoding="UTF-8" standalone="no"?>
<svg
   width="32.752789"
   height="29.169058"
   viewBox="0 0 32.752787 29.169058"
   version="1.1"
   id="svg95"
   sodipodi:docname="snowplow-logo.svg"
   inkscape:version="1.1 (c4e8f9e, 2021-05-24)"
   xmlns:inkscape="http://www.inkscape.org/namespaces/inkscape"
   xmlns:sodipodi="http://sodipodi.sourceforge.net/DTD/sodipodi-0.dtd"
   xmlns="http://www.w3.org/2000/svg"
   xmlns:svg="http://www.w3.org/2000/svg">
  <sodipodi:namedview
     id="namedview97"
     pagecolor="#505050"
     bordercolor="#eeeeee"
     borderopacity="1"
     inkscape:pageshadow="0"
     inkscape:pageopacity="0"
     inkscape:pagecheckerboard="0"
     showgrid="false"
     inkscape:zoom="3.4573835"
     inkscape:cx="221.98868"
     inkscape:cy="48.447041"
     inkscape:window-width="1772"
     inkscape:window-height="1047"
     inkscape:window-x="10"
     inkscape:window-y="35"
     inkscape:window-maximized="0"
     inkscape:current-layer="g93" />
  <defs
     id="defs73">
    <clipPath
       id="a">
      <rect
         width="196.72301"
         height="29.171"
         fill="none"
         id="rect70"
         x="0"
         y="0" />
    </clipPath>
  </defs>
  <g
     clip-path="url(#a)"
     id="g93"
     transform="translate(-6.0482343e-4,-9.4294268e-4)">
    <path
       d="M 32.437,13.182 25.641,1.41 A 3.063,3.063 0 0 0 23.2,0.015 h -5.067 a 0.487,0.487 0 0 0 -0.14,0 H 9.6 a 3.046,3.046 0 0 0 -2.437,1.4 L 0.365,13.182 a 3.076,3.076 0 0 0 0,2.813 l 6.8,11.778 A 3.059,3.059 0 0 0 9.6,29.179 h 13.6 a 3.059,3.059 0 0 0 2.437,-1.406 l 6.8,-11.778 a 3.076,3.076 0 0 0 0,-2.813 M 24.795,1.9 27.277,6.2 22.929,13.641 20.083,8.767 A 0.487,0.487 0 0 0 19.663,8.526 H 14.014 L 18.34,0.99 h 4.86 a 2.1,2.1 0 0 1 1.591,0.908 M 16.71,14.14 14,9.5 h 5.385 l 2.712,4.639 z M 15.825,14.611 13.146,19.2 10.457,14.589 13.135,10 Z m 0.857,0.51 h 5.357 l -2.661,4.561 H 14 Z M 8.014,1.9 A 2.086,2.086 0 0 1 9.6,1 h 7.609 l -4.321,7.526 h -8.7 z M 1.214,13.672 3.621,9.5 h 8.674 l -2.83,4.841 a 0.487,0.487 0 0 0 0,0.493 l 2.83,4.847 H 3.621 l -2.41,-4.168 a 2.114,2.114 0 0 1 0,-1.838 M 9.6,28.2 A 2.1,2.1 0 0 1 8.009,27.281 L 4.181,20.656 h 8.674 L 17.219,28.2 Z M 24.79,27.281 A 2.1,2.1 0 0 1 23.2,28.2 h -4.849 l -4.365,-7.547 h 5.67 a 0.487,0.487 0 0 0 0.42,-0.241 l 2.824,-4.832 4.342,7.458 z m 6.8,-11.778 -3.782,6.556 -4.326,-7.435 4.361,-7.454 3.754,6.5 a 2.114,2.114 0 0 1 0,1.838"
       transform="translate(-0.024,-0.009)"
       fill="#ffffff"
       id="path91" />
  </g>
</svg>
